<svg width="18" height="16" viewBox="0 0 18 16" fill="none" xmlns="http://www.w3.org/2000/svg">
<mask id="mask0_492_5" style="mask-type:alpha" maskUnits="userSpaceOnUse" x="0" y="0" width="18" height="16">
<path d="M0 0H18V15.9415H0V0Z" fill="white"/>
</mask>
<g mask="url(#mask0_492_5)">
<path fill-rule="evenodd" clip-rule="evenodd" d="M9 14.8003C7.5227 13.7511 1.0492 8.9166 1.0492 4.8017C1.0492 2.7187 2.78666 1.0236 4.9218 1.0236C6.5082 1.0236 7.9183 1.95508 8.5121 3.3963C8.6727 3.7843 9.3263 3.7843 9.4858 3.3963C10.0817 1.95508 11.4897 1.0236 13.0761 1.0236C15.2133 1.0236 16.9508 2.7187 16.9508 4.8017C16.9508 8.0998 12.7886 11.8615 10.3776 13.7634C10.6147 13.9261 10.8518 14.0889 11.0785 14.2649C11.1372 14.309 11.1939 14.353 11.2516 14.397C13.82 12.3467 18 8.4519 18 4.8017C18 2.1537 15.7914 0 13.0761 0C11.4121 0 9.9013 0.80558 9 2.1168C8.0977 0.80558 6.5879 0 4.9218 0C2.20856 0 0 2.1526 0 4.8017C0 9.9556 8.3464 15.6141 8.7031 15.8515C8.7933 15.9119 8.8951 15.9416 9 15.9416C9.1049 15.9416 9.2067 15.9119 9.2969 15.8515C9.3473 15.8178 9.5697 15.6663 9.8939 15.4319" fill="black"/>
</g>
</svg>
